<svg version="1.1" id="Layer_1" xmlns="http://www.w3.org/2000/svg" xmlns:xlink="http://www.w3.org/1999/xlink" x="0px" y="0px"
	 width="100%" viewBox="0 0 485 106" enable-background="new 0 0 485 106" xml:space="preserve">
<path fill="#FF0000" opacity="1.000000" stroke="none" 
	d="
M330.000000,107.000000 
	C220.000000,107.000000 110.500000,107.000000 1.000000,107.000000 
	C1.000000,71.666664 1.000000,36.333332 1.000000,1.000000 
	C162.666672,1.000000 324.333344,1.000000 486.000000,1.000000 
	C486.000000,36.333332 486.000000,71.666664 486.000000,107.000000 
	C434.166656,107.000000 382.333344,107.000000 330.000000,107.000000 
M91.500000,1.997564 
	C61.747406,1.997564 31.994810,1.997564 2.301628,1.997564 
	C2.301628,36.985428 2.301628,71.377090 2.301628,105.704803 
	C70.322350,105.704803 138.038589,105.704803 205.698395,105.704803 
	C205.698395,71.014656 205.698395,36.623005 205.698395,1.997564 
	C167.763245,1.997564 130.131622,1.997564 91.500000,1.997564 
M273.528656,58.945755 
	C275.109741,45.660233 270.415070,36.017429 259.525665,33.884995 
	C249.919418,32.003834 239.894928,32.258446 229.889404,31.558384 
	C229.889404,48.074661 229.889404,63.313782 229.889404,78.725883 
	C230.700745,78.834778 231.332932,78.994629 231.964691,78.992897 
	C238.780655,78.974190 245.612701,79.214668 252.408859,78.829094 
	C263.846436,78.180214 271.261505,71.244911 273.528656,58.945755 
M303.682709,38.581799 
	C303.682709,51.983635 303.682709,65.385475 303.682709,78.655716 
	C308.804596,78.655716 313.203247,78.655716 318.035278,78.655716 
	C318.035278,73.246971 318.035278,68.182724 318.035278,63.118473 
	C318.524445,62.840023 319.013611,62.561573 319.502777,62.283123 
	C321.067596,64.320045 322.912109,66.203690 324.132019,68.429626 
	C325.988251,71.816628 326.523285,76.900635 329.260895,78.566750 
	C332.184662,80.346123 337.014099,79.003998 341.011658,79.000816 
	C341.805756,79.000183 342.599792,78.892410 343.936127,78.794197 
	C340.402161,71.322815 339.722900,62.753002 331.707825,58.092297 
	C332.437073,57.591366 332.797668,57.270725 333.215393,57.067657 
	C339.602631,53.962528 342.493896,49.246670 341.617645,43.329601 
	C340.754578,37.501526 336.970581,33.546993 329.899750,33.051846 
	C321.348877,32.453056 312.724060,32.909908 303.682709,32.909908 
	C303.682709,34.336475 303.682709,35.971634 303.682709,38.581799 
M377.305664,67.995575 
	C372.859161,67.995575 368.412689,67.995575 364.123657,67.995575 
	C364.123657,65.457748 364.123657,63.520485 364.123657,61.138527 
	C368.804871,61.138527 373.225128,61.138527 377.628418,61.138527 
	C377.628418,57.141899 377.628418,53.611301 377.628418,49.720436 
	C372.819702,49.720436 368.388519,49.720436 364.142944,49.720436 
	C364.142944,47.410000 364.142944,45.482895 364.142944,43.050137 
	C369.168457,43.050137 373.911743,43.050137 378.545563,43.050137 
	C378.545563,39.144909 378.545563,35.767670 378.545563,32.538708 
	C368.756653,32.538708 359.360657,32.538708 349.968567,32.538708 
	C349.968567,48.164822 349.968567,63.411171 349.968567,78.649109 
	C360.134064,78.649109 370.017273,78.649109 380.005157,78.649109 
	C380.005157,76.465172 380.231110,74.599449 379.939148,72.818626 
	C379.668243,71.166191 378.844330,69.604416 377.305664,67.995575 
M421.722931,74.193520 
	C421.722931,71.451920 421.722931,68.710320 421.722931,65.552322 
	C414.049011,67.809326 406.942993,70.135529 401.299408,63.214767 
	C398.267059,59.496140 398.150452,52.573318 401.066711,48.628632 
	C406.708466,40.997238 414.207123,43.743393 421.571228,45.581360 
	C421.571228,41.326649 421.571228,37.356216 421.571228,31.906994 
	C415.887054,31.906994 410.271393,31.396202 404.785248,32.021740 
	C395.603760,33.068619 389.153931,38.362442 385.891632,46.978500 
	C382.475830,55.999943 383.459869,64.688034 389.562439,72.382797 
	C395.315796,79.637238 412.858765,82.754677 420.594727,77.964340 
	C421.299805,77.527710 421.361633,76.052238 421.722931,74.193520 
M445.499512,32.150307 
	C438.409943,32.150307 431.320374,32.150307 424.303589,32.150307 
	C424.303589,36.206032 424.303589,39.485313 424.303589,43.252937 
	C428.615356,43.252937 432.696442,43.252937 437.176147,43.252937 
	C437.176147,55.339001 437.176147,66.933624 437.176147,78.643951 
	C442.132080,78.643951 446.657074,78.643951 451.603638,78.643951 
	C451.603638,66.675285 451.603638,55.072887 451.603638,43.033905 
	C456.121368,43.033905 460.216187,43.033905 464.335693,43.033905 
	C464.335693,39.186180 464.335693,35.803017 464.335693,32.150307 
	C458.136688,32.150307 452.317810,32.150307 445.499512,32.150307 
M294.018341,32.357433 
	C289.739807,32.357433 285.461243,32.357433 281.002838,32.357433 
	C281.002838,48.017807 281.002838,63.371807 281.002838,78.694511 
	C285.733856,78.694511 290.135162,78.694511 294.658539,78.694511 
	C294.658539,63.260826 294.658539,48.143230 294.018341,32.357433 
z"/>
<path fill="#FFFEFE" opacity="1.000000" stroke="none" 
	d="
M92.000000,1.997564 
	C130.131622,1.997564 167.763245,1.997564 205.698395,1.997564 
	C205.698395,36.623005 205.698395,71.014656 205.698395,105.704803 
	C138.038589,105.704803 70.322350,105.704803 2.301628,105.704803 
	C2.301628,71.377090 2.301628,36.985428 2.301628,1.997564 
	C31.994810,1.997564 61.747406,1.997564 92.000000,1.997564 
M24.842810,35.194038 
	C23.886858,35.858097 22.879110,36.459183 21.983103,37.196129 
	C14.466083,43.378696 12.059114,51.503365 13.397308,60.839722 
	C14.668905,69.711449 19.623272,75.737640 28.247097,78.459167 
	C37.013718,81.225769 45.665371,80.156464 54.123558,77.092995 
	C55.236847,76.689774 56.689945,75.186241 56.719784,74.155678 
	C56.940018,66.548683 56.838928,58.932381 56.838928,51.072334 
	C48.951157,51.072334 41.534649,51.072334 34.076241,51.072334 
	C34.076241,54.585003 34.076241,57.965431 34.076241,61.330395 
	C37.078484,61.505585 39.683105,61.657570 42.362495,61.813919 
	C42.362495,64.112991 42.362495,65.994537 42.362495,67.814598 
	C33.773109,69.371811 29.220587,65.899437 28.232897,57.330639 
	C27.350639,49.676529 32.135624,43.243809 39.401150,43.122131 
	C43.953300,43.045898 48.522850,44.009068 53.298553,44.529171 
	C53.298553,40.938797 53.298553,37.176010 53.298553,33.254963 
	C43.782318,30.882463 34.519814,30.545443 24.842810,35.194038 
M97.254608,34.013996 
	C80.237885,27.418045 65.534569,34.953098 62.389030,51.881668 
	C60.598114,61.519985 64.796227,71.406647 72.836555,76.485825 
	C80.936600,81.602730 92.080971,80.841484 100.035103,75.250977 
	C112.253510,66.663368 112.883644,42.639866 97.254608,34.013996 
M126.440315,35.812599 
	C121.555283,50.047802 116.670242,64.283005 111.677536,78.831955 
	C116.969955,78.831955 121.747948,78.831955 126.502190,78.831955 
	C129.759338,70.509956 129.822647,71.138565 137.740646,70.341110 
	C145.043121,69.605637 143.509567,75.425774 145.337006,78.854980 
	C150.233078,78.854980 155.023193,78.854980 160.325928,78.854980 
	C155.460556,63.771336 150.698227,48.970791 145.882233,34.187733 
	C145.650177,33.475388 144.951813,32.375786 144.459778,32.369961 
	C139.003296,32.305401 133.541840,32.358006 128.091568,32.600044 
	C127.617065,32.621113 127.212212,34.210690 126.440315,35.812599 
M179.839249,48.502686 
	C179.839249,43.230122 179.839249,37.957561 179.839249,32.428841 
	C174.947281,32.428841 170.562088,32.428841 165.988678,32.428841 
	C165.988678,48.018963 165.988678,63.350819 165.988678,78.661469 
	C176.151291,78.661469 186.012161,78.661469 195.652161,78.661469 
	C195.652161,74.912918 195.652161,71.519722 195.652161,67.765778 
	C190.219147,67.765778 185.138489,67.765778 179.839249,67.765778 
	C179.839249,61.427849 179.839249,55.464718 179.839249,48.502686 
z"/>
<path fill="#FFFAFA" opacity="1.000000" stroke="none" 
	d="
M273.452026,59.367443 
	C271.261505,71.244911 263.846436,78.180214 252.408859,78.829094 
	C245.612701,79.214668 238.780655,78.974190 231.964691,78.992897 
	C231.332932,78.994629 230.700745,78.834778 229.889404,78.725883 
	C229.889404,63.313782 229.889404,48.074661 229.889404,31.558384 
	C239.894928,32.258446 249.919418,32.003834 259.525665,33.884995 
	C270.415070,36.017429 275.109741,45.660233 273.452026,59.367443 
M246.355392,67.998001 
	C254.901764,67.843330 259.577667,62.737865 258.883118,54.319340 
	C258.235901,46.474464 252.926575,42.594925 243.870316,43.688290 
	C243.870316,51.270905 243.841522,58.906971 243.937653,66.541466 
	C243.943817,67.029884 244.917465,67.506119 246.355392,67.998001 
z"/>
<path fill="#FFFAFA" opacity="1.000000" stroke="none" 
	d="
M303.682709,38.094292 
	C303.682709,35.971634 303.682709,34.336475 303.682709,32.909908 
	C312.724060,32.909908 321.348877,32.453056 329.899750,33.051846 
	C336.970581,33.546993 340.754578,37.501526 341.617645,43.329601 
	C342.493896,49.246670 339.602631,53.962528 333.215393,57.067657 
	C332.797668,57.270725 332.437073,57.591366 331.707825,58.092297 
	C339.722900,62.753002 340.402161,71.322815 343.936127,78.794197 
	C342.599792,78.892410 341.805756,79.000183 341.011658,79.000816 
	C337.014099,79.003998 332.184662,80.346123 329.260895,78.566750 
	C326.523285,76.900635 325.988251,71.816628 324.132019,68.429626 
	C322.912109,66.203690 321.067596,64.320045 319.502777,62.283123 
	C319.013611,62.561573 318.524445,62.840023 318.035278,63.118473 
	C318.035278,68.182724 318.035278,73.246971 318.035278,78.655716 
	C313.203247,78.655716 308.804596,78.655716 303.682709,78.655716 
	C303.682709,65.385475 303.682709,51.983635 303.682709,38.094292 
M317.816986,45.596874 
	C317.816986,47.889233 317.816986,50.181587 317.816986,53.434391 
	C320.615143,52.524574 323.211456,52.379982 324.620514,51.012234 
	C325.862488,49.806679 326.791779,46.573208 326.040558,45.422585 
	C324.933167,43.726425 322.272980,42.912643 320.123779,42.142723 
	C319.710815,41.994774 318.604614,43.781750 317.816986,45.596874 
z"/>
<path fill="#FFFCFC" opacity="1.000000" stroke="none" 
	d="
M377.784790,67.999146 
	C378.844330,69.604416 379.668243,71.166191 379.939148,72.818626 
	C380.231110,74.599449 380.005157,76.465172 380.005157,78.649109 
	C370.017273,78.649109 360.134064,78.649109 349.968567,78.649109 
	C349.968567,63.411171 349.968567,48.164822 349.968567,32.538708 
	C359.360657,32.538708 368.756653,32.538708 378.545563,32.538708 
	C378.545563,35.767670 378.545563,39.144909 378.545563,43.050137 
	C373.911743,43.050137 369.168457,43.050137 364.142944,43.050137 
	C364.142944,45.482895 364.142944,47.410000 364.142944,49.720436 
	C368.388519,49.720436 372.819702,49.720436 377.628418,49.720436 
	C377.628418,53.611301 377.628418,57.141899 377.628418,61.138527 
	C373.225128,61.138527 368.804871,61.138527 364.123657,61.138527 
	C364.123657,63.520485 364.123657,65.457748 364.123657,67.995575 
	C368.412689,67.995575 372.859161,67.995575 377.784790,67.999146 
z"/>
<path fill="#FFF7F7" opacity="1.000000" stroke="none" 
	d="
M421.722534,74.626343 
	C421.361633,76.052238 421.299805,77.527710 420.594727,77.964340 
	C412.858765,82.754677 395.315796,79.637238 389.562439,72.382797 
	C383.459869,64.688034 382.475830,55.999943 385.891632,46.978500 
	C389.153931,38.362442 395.603760,33.068619 404.785248,32.021740 
	C410.271393,31.396202 415.887054,31.906994 421.571228,31.906994 
	C421.571228,37.356216 421.571228,41.326649 421.571228,45.581360 
	C414.207123,43.743393 406.708466,40.997238 401.066711,48.628632 
	C398.150452,52.573318 398.267059,59.496140 401.299408,63.214767 
	C406.942993,70.135529 414.049011,67.809326 421.722931,65.552322 
	C421.722931,68.710320 421.722931,71.451920 421.722534,74.626343 
z"/>
<path fill="#FFF8F8" opacity="1.000000" stroke="none" 
	d="
M445.999207,32.150307 
	C452.317810,32.150307 458.136688,32.150307 464.335693,32.150307 
	C464.335693,35.803017 464.335693,39.186180 464.335693,43.033905 
	C460.216187,43.033905 456.121368,43.033905 451.603638,43.033905 
	C451.603638,55.072887 451.603638,66.675285 451.603638,78.643951 
	C446.657074,78.643951 442.132080,78.643951 437.176147,78.643951 
	C437.176147,66.933624 437.176147,55.339001 437.176147,43.252937 
	C432.696442,43.252937 428.615356,43.252937 424.303589,43.252937 
	C424.303589,39.485313 424.303589,36.206032 424.303589,32.150307 
	C431.320374,32.150307 438.409943,32.150307 445.999207,32.150307 
z"/>
<path fill="#FFF9F9" opacity="1.000000" stroke="none" 
	d="
M294.338440,32.691536 
	C294.658539,48.143230 294.658539,63.260826 294.658539,78.694511 
	C290.135162,78.694511 285.733856,78.694511 281.002838,78.694511 
	C281.002838,63.371807 281.002838,48.017807 281.002838,32.357433 
	C285.461243,32.357433 289.739807,32.357433 294.338440,32.691536 
z"/>
<path fill="#FF0707" opacity="1.000000" stroke="none" 
	d="
M25.169016,35.014404 
	C34.519814,30.545443 43.782318,30.882463 53.298553,33.254963 
	C53.298553,37.176010 53.298553,40.938797 53.298553,44.529171 
	C48.522850,44.009068 43.953300,43.045898 39.401150,43.122131 
	C32.135624,43.243809 27.350639,49.676529 28.232897,57.330639 
	C29.220587,65.899437 33.773109,69.371811 42.362495,67.814598 
	C42.362495,65.994537 42.362495,64.112991 42.362495,61.813919 
	C39.683105,61.657570 37.078484,61.505585 34.076241,61.330395 
	C34.076241,57.965431 34.076241,54.585003 34.076241,51.072334 
	C41.534649,51.072334 48.951157,51.072334 56.838928,51.072334 
	C56.838928,58.932381 56.940018,66.548683 56.719784,74.155678 
	C56.689945,75.186241 55.236847,76.689774 54.123558,77.092995 
	C45.665371,80.156464 37.013718,81.225769 28.247097,78.459167 
	C19.623272,75.737640 14.668905,69.711449 13.397308,60.839722 
	C12.059114,51.503365 14.466083,43.378696 21.983103,37.196129 
	C22.879110,36.459183 23.886858,35.858097 25.169016,35.014404 
z"/>
<path fill="#FF0505" opacity="1.000000" stroke="none" 
	d="
M97.605515,34.155037 
	C112.883644,42.639866 112.253510,66.663368 100.035103,75.250977 
	C92.080971,80.841484 80.936600,81.602730 72.836555,76.485825 
	C64.796227,71.406647 60.598114,61.519985 62.389030,51.881668 
	C65.534569,34.953098 80.237885,27.418045 97.605515,34.155037 
M91.045807,65.561630 
	C95.465538,60.125118 95.189995,54.027321 92.537613,48.221012 
	C91.581207,46.127338 88.344666,43.833511 86.179253,43.863213 
	C83.735596,43.896725 79.840401,45.980331 79.210976,47.995281 
	C77.892166,52.217136 77.374817,57.159504 78.218628,61.475548 
	C79.455711,67.803116 84.503532,69.296722 91.045807,65.561630 
z"/>
<path fill="#FF0606" opacity="1.000000" stroke="none" 
	d="
M126.607666,35.442150 
	C127.212212,34.210690 127.617065,32.621113 128.091568,32.600044 
	C133.541840,32.358006 139.003296,32.305401 144.459778,32.369961 
	C144.951813,32.375786 145.650177,33.475388 145.882233,34.187733 
	C150.698227,48.970791 155.460556,63.771336 160.325928,78.854980 
	C155.023193,78.854980 150.233078,78.854980 145.337006,78.854980 
	C143.509567,75.425774 145.043121,69.605637 137.740646,70.341110 
	C129.822647,71.138565 129.759338,70.509956 126.502190,78.831955 
	C121.747948,78.831955 116.969955,78.831955 111.677536,78.831955 
	C116.670242,64.283005 121.555283,50.047802 126.607666,35.442150 
M132.092529,57.712711 
	C133.084946,64.045723 137.310608,58.994362 140.487335,60.843220 
	C138.979218,54.646423 137.720078,49.472672 136.110657,42.859612 
	C134.593521,48.443611 133.444595,52.672413 132.092529,57.712711 
z"/>
<path fill="#FF0404" opacity="1.000000" stroke="none" 
	d="
M179.839249,49.002136 
	C179.839249,55.464718 179.839249,61.427849 179.839249,67.765778 
	C185.138489,67.765778 190.219147,67.765778 195.652161,67.765778 
	C195.652161,71.519722 195.652161,74.912918 195.652161,78.661469 
	C186.012161,78.661469 176.151291,78.661469 165.988678,78.661469 
	C165.988678,63.350819 165.988678,48.018963 165.988678,32.428841 
	C170.562088,32.428841 174.947281,32.428841 179.839249,32.428841 
	C179.839249,37.957561 179.839249,43.230122 179.839249,49.002136 
z"/>
<path fill="#FF0404" opacity="1.000000" stroke="none" 
	d="
M245.898224,67.993011 
	C244.917465,67.506119 243.943817,67.029884 243.937653,66.541466 
	C243.841522,58.906971 243.870316,51.270905 243.870316,43.688290 
	C252.926575,42.594925 258.235901,46.474464 258.883118,54.319340 
	C259.577667,62.737865 254.901764,67.843330 245.898224,67.993011 
z"/>
<path fill="#FF0B0B" opacity="1.000000" stroke="none" 
	d="
M317.817627,45.136478 
	C318.604614,43.781750 319.710815,41.994774 320.123779,42.142723 
	C322.272980,42.912643 324.933167,43.726425 326.040558,45.422585 
	C326.791779,46.573208 325.862488,49.806679 324.620514,51.012234 
	C323.211456,52.379982 320.615143,52.524574 317.816986,53.434391 
	C317.816986,50.181587 317.816986,47.889233 317.817627,45.136478 
z"/>
<path fill="#FFF9F9" opacity="1.000000" stroke="none" 
	d="
M90.764191,65.825287 
	C84.503532,69.296722 79.455711,67.803116 78.218628,61.475548 
	C77.374817,57.159504 77.892166,52.217136 79.210976,47.995281 
	C79.840401,45.980331 83.735596,43.896725 86.179253,43.863213 
	C88.344666,43.833511 91.581207,46.127338 92.537613,48.221012 
	C95.189995,54.027321 95.465538,60.125118 90.764191,65.825287 
z"/>
<path fill="#FFE6E6" opacity="1.000000" stroke="none" 
	d="
M132.194092,57.306965 
	C133.444595,52.672413 134.593521,48.443611 136.110657,42.859612 
	C137.720078,49.472672 138.979218,54.646423 140.487335,60.843220 
	C137.310608,58.994362 133.084946,64.045723 132.194092,57.306965 
z"/>
</svg>